<?xml version="1.0" standalone="no"?>
<!DOCTYPE svg PUBLIC "-//W3C//DTD SVG 20010904//EN"
 "http://www.w3.org/TR/2001/REC-SVG-20010904/DTD/svg10.dtd">
<svg version="1.0" xmlns="http://www.w3.org/2000/svg"
 width="2480.000000pt" height="1779.000000pt" viewBox="0 0 2480.000000 1779.000000"
 preserveAspectRatio="xMidYMid meet">

<g transform="translate(0.000000,1779.000000) scale(0.100000,-0.100000)"
fill="#000000" stroke="none">
<path d="M12436 12785 c-120 -228 -215 -419 -212 -424 5 -7 511 -444 799 -689
16 -14 17 -10 17 74 l0 89 -335 299 c-287 258 -332 302 -324 318 6 10 79 163
164 340 l155 321 -20 43 c-10 24 -21 44 -23 44 -2 0 -102 -187 -221 -415z"/>
<path d="M13040 13029 l0 -81 519 7 519 8 6 -69 c3 -38 8 -127 11 -199 3 -71
8 -160 11 -197 l6 -68 -425 -2 -425 -3 379 -333 380 -333 103 3 103 3 -328
275 -329 275 335 3 335 2 0 395 0 395 -600 0 -600 0 0 -81z"/>
<path d="M15627 13037 c43 -41 129 -120 191 -177 61 -57 112 -104 112 -104 0
-1 9 -53 20 -116 11 -63 20 -118 20 -122 0 -5 50 -8 110 -8 l110 0 0 300 0
300 -321 0 -321 0 79 -73z"/>
<path d="M16309 13095 c4 -5 36 -46 71 -90 35 -44 64 -81 65 -82 1 -1 38 3 83
11 81 12 83 12 87 -8 2 -12 18 -250 35 -531 17 -280 33 -540 37 -577 l6 -68
43 0 44 0 2 598 3 597 148 3 147 3 0 68 0 69 -172 6 c-323 11 -607 12 -599 1z"/>
<path d="M14574 13048 c13 -29 74 -158 135 -285 l111 -232 0 -386 0 -385 60 0
60 0 0 382 0 382 155 283 c85 155 155 285 155 288 0 3 -41 5 -91 5 l-90 0 -84
-172 -83 -173 -83 173 -83 172 -93 0 -93 0 24 -52z"/>
<path d="M17789 13091 c-23 -6 -25 -9 -17 -40 8 -28 13 -32 31 -27 12 3 50 6
85 6 l62 0 0 35 0 35 -67 -1 c-38 -1 -80 -4 -94 -8z"/>
<path d="M18046 13064 c-10 -26 -7 -54 7 -54 6 0 40 -13 75 -30 l62 -29 17 26
c16 25 16 26 -5 44 -21 17 -122 59 -141 59 -5 0 -12 -7 -15 -16z"/>
<path d="M17595 13012 c-84 -54 -90 -63 -61 -91 l24 -22 46 35 c25 19 55 37
66 41 11 3 20 13 20 21 0 19 -18 54 -28 54 -4 0 -34 -17 -67 -38z"/>
<path d="M18283 12918 l-21 -21 51 -68 52 -67 27 16 c16 9 28 19 28 23 0 9
-72 99 -97 121 -18 17 -20 16 -40 -4z"/>
<path d="M17392 12801 c-23 -37 -42 -73 -42 -79 0 -11 31 -32 48 -32 5 0 28
32 52 72 l43 72 -23 18 c-12 10 -25 18 -29 18 -3 0 -25 -31 -49 -69z"/>
<path d="M10131 12515 c-4 -1378 188 -2660 574 -3810 341 -1019 826 -1932
1464 -2755 656 -847 1490 -1597 2431 -2187 691 -434 1438 -786 2175 -1025 336
-110 363 -114 142 -24 -405 165 -982 445 -1352 654 -1739 983 -3066 2302
-3999 3977 -168 301 -402 789 -541 1129 -185 452 -363 991 -494 1496 -50 191
-131 551 -131 579 0 21 4 21 188 21 103 0 902 7 1776 15 874 8 1590 14 1591
12 1 -1 21 -369 44 -817 23 -448 44 -852 48 -897 l6 -83 -1474 -2 -1474 -3
1135 -995 c624 -547 1223 -1072 1332 -1167 l196 -173 373 2 373 3 -1152 965
-1151 965 1154 3 1155 2 0 1365 0 1365 -2070 0 -2070 0 0 -210 c0 -115 -4
-210 -9 -210 -4 0 -11 17 -14 38 -3 20 -19 116 -36 212 -92 527 -169 1291
-172 1690 0 58 -4 123 -8 145 -6 25 -9 -83 -10 -280z"/>
<path d="M18438 12697 c-32 -13 -33 -18 -14 -78 8 -24 17 -56 20 -71 5 -23 12
-28 36 -28 26 0 30 3 30 29 0 25 -37 163 -43 160 -1 -1 -14 -6 -29 -12z"/>
<path d="M17306 12597 c-3 -12 -9 -55 -13 -94 l-6 -73 37 0 c36 0 36 0 36 43
0 23 5 60 10 82 10 46 12 43 -28 54 -26 8 -31 6 -36 -12z"/>
<path d="M15590 12135 l0 -375 115 0 115 0 0 375 0 375 -115 0 -115 0 0 -375z"/>
<path d="M18450 12383 c0 -26 -4 -65 -9 -86 -10 -40 -9 -41 31 -51 25 -6 27
-4 38 49 6 30 10 71 8 92 -3 35 -6 38 -35 41 l-33 3 0 -48z"/>
<path d="M8513 12345 c0 -33 2 -45 4 -27 2 18 2 45 0 60 -2 15 -4 0 -4 -33z"/>
<path d="M17313 12333 c-7 -2 -13 -15 -13 -28 0 -24 38 -155 45 -155 2 0 16 5
30 12 19 9 25 18 22 32 -4 19 -25 103 -33 134 -3 12 -28 15 -51 5z"/>
<path d="M18379 12128 c-12 -24 -31 -56 -41 -71 -19 -27 -19 -29 -2 -48 10
-11 24 -18 32 -17 15 3 92 123 92 143 0 10 -40 35 -55 35 -3 0 -14 -19 -26
-42z"/>
<path d="M8505 11615 c4 -528 17 -804 55 -1210 227 -2381 1077 -4404 2535
-6035 1012 -1132 2360 -2074 3795 -2655 202 -82 500 -189 506 -182 2 2 -33 18
-79 37 -1785 724 -3258 1800 -4372 3192 -1139 1425 -1910 3216 -2244 5213
-107 639 -179 1405 -182 1940 -1 94 -5 181 -10 195 -5 15 -7 -191 -4 -495z"/>
<path d="M17413 12078 c-13 -6 -23 -14 -23 -19 0 -9 85 -122 103 -137 11 -9
19 -6 36 12 l23 24 -53 66 c-29 36 -55 66 -58 65 -3 0 -16 -5 -28 -11z"/>
<path d="M18214 11929 c-21 -17 -51 -37 -66 -45 -31 -16 -35 -31 -15 -59 13
-17 16 -17 63 9 27 15 62 38 78 52 l29 26 -25 24 -24 25 -40 -32z"/>
<path d="M17606 11885 c-9 -14 -16 -28 -16 -33 0 -5 30 -23 68 -39 102 -46
100 -46 107 -13 7 33 0 50 -20 50 -7 0 -38 13 -68 29 l-56 29 -15 -23z"/>
<path d="M17985 11829 c-22 -4 -59 -8 -83 -8 -43 -1 -43 -1 -40 -33 l3 -33 60
2 c33 1 74 5 92 8 30 5 31 7 23 37 -5 17 -11 32 -12 33 -2 1 -21 -2 -43 -6z"/>
<path d="M17561 9966 c-635 -639 -1153 -1167 -1151 -1172 2 -5 516 -532 1142
-1171 l1139 -1163 449 0 c248 0 450 2 450 4 0 2 -540 526 -1200 1166 -660 639
-1200 1165 -1200 1169 0 3 476 520 1058 1147 581 628 1066 1151 1076 1163 l19
21 -314 -1 -314 -1 -1154 -1162z"/>
<path d="M6030 9078 c-580 -1123 -1122 -2171 -1203 -2330 l-148 -288 328 0
328 0 900 1819 c495 1001 903 1817 906 1813 4 -4 425 -823 935 -1819 l928
-1813 294 0 c276 0 294 1 288 18 -13 34 -2490 4642 -2495 4642 -3 0 -481 -919
-1061 -2042z"/>
</g>
</svg>
