<?xml version="1.0" encoding="utf-8"?>
<!-- Generator: Adobe Illustrator 16.0.0, SVG Export Plug-In . SVG Version: 6.00 Build 0)  -->
<!DOCTYPE svg PUBLIC "-//W3C//DTD SVG 1.1//EN" "http://www.w3.org/Graphics/SVG/1.1/DTD/svg11.dtd">
<svg version="1.1" id="Layer_1" xmlns="http://www.w3.org/2000/svg" xmlns:xlink="http://www.w3.org/1999/xlink" x="0px" y="0px"
	 width="54px" height="55.333px" viewBox="0 0 54 55.333" enable-background="new 0 0 54 55.333" xml:space="preserve">
<radialGradient id="SVGID_1_" cx="28.3618" cy="29.0742" r="23.7188" gradientUnits="userSpaceOnUse">
	<stop  offset="0" style="stop-color:#FFF7F0"/>
	<stop  offset="0.3337" style="stop-color:#FDF5EF"/>
	<stop  offset="0.4702" style="stop-color:#F6EDE9"/>
	<stop  offset="0.5706" style="stop-color:#E9E1E0"/>
	<stop  offset="0.6535" style="stop-color:#D8CFD3"/>
	<stop  offset="0.7254" style="stop-color:#C3B9C2"/>
	<stop  offset="0.7898" style="stop-color:#A99FAF"/>
	<stop  offset="0.8486" style="stop-color:#8B8398"/>
	<stop  offset="0.903" style="stop-color:#696481"/>
	<stop  offset="0.9518" style="stop-color:#48496B"/>
	<stop  offset="0.9977" style="stop-color:#253256"/>
	<stop  offset="1" style="stop-color:#223155"/>
</radialGradient>
<path opacity="0.1" fill="url(#SVGID_1_)" d="M52.049,40.824c0,6.627-5.503,12-12.292,12H16.966c-6.789,0-12.292-5.373-12.292-12
	v-23.5c0-6.627,5.503-12,12.292-12h22.791c6.789,0,12.292,5.373,12.292,12V40.824z"/>
<g>
	<linearGradient id="SVGID_2_" gradientUnits="userSpaceOnUse" x1="11.8584" y1="26.6133" x2="44.0254" y2="26.6133">
		<stop  offset="0.1613" style="stop-color:#EF7749"/>
		<stop  offset="0.4247" style="stop-color:#EC665A"/>
		<stop  offset="0.914" style="stop-color:#EB5C67"/>
	</linearGradient>
	<polygon fill="none" stroke="url(#SVGID_2_)" stroke-width="1.3" stroke-miterlimit="10" points="27.942,21.287 13.714,26.614 
		14.506,26.91 27.942,31.939 40.431,27.265 42.17,26.614 	"/>
	<linearGradient id="SVGID_3_" gradientUnits="userSpaceOnUse" x1="18.7593" y1="32.9355" x2="37.1255" y2="32.9355">
		<stop  offset="0.1613" style="stop-color:#EF7749"/>
		<stop  offset="0.4247" style="stop-color:#EC665A"/>
		<stop  offset="0.914" style="stop-color:#EB5C67"/>
	</linearGradient>
	<path fill="none" stroke="url(#SVGID_3_)" stroke-width="1.3" stroke-miterlimit="10" d="M19.409,29.297v1.304v3.174
		c0,1.706,3.82,3.088,8.533,3.088c3.195,0,5.978-0.636,7.44-1.575c0.694-0.447,1.093-0.963,1.093-1.513v-4.478l-8.533,3.194
		L19.409,29.297z"/>
	<linearGradient id="SVGID_4_" gradientUnits="userSpaceOnUse" x1="40.6948" y1="30.5547" x2="43.0098" y2="30.5547">
		<stop  offset="0.1613" style="stop-color:#EF7749"/>
		<stop  offset="0.4247" style="stop-color:#EC665A"/>
		<stop  offset="0.914" style="stop-color:#EB5C67"/>
	</linearGradient>
	<polygon fill="url(#SVGID_4_)" points="42.146,27.394 41.525,27.624 41.313,29.183 40.695,33.716 41.932,33.716 43.01,33.716 	"/>
</g>
</svg>
